<svg width="28" height="28" viewBox="0 0 28 28" fill="none" xmlns="http://www.w3.org/2000/svg">
<path d="M14.0007 2.33301C7.57232 2.33301 2.33398 7.57134 2.33398 13.9997C2.33398 20.428 7.57232 25.6663 14.0007 25.6663C20.429 25.6663 25.6673 20.428 25.6673 13.9997C25.6673 7.57134 20.429 2.33301 14.0007 2.33301ZM19.0757 18.1647C18.9123 18.4447 18.6207 18.5963 18.3173 18.5963C18.1657 18.5963 18.014 18.5613 17.874 18.468L14.2573 16.3097C13.359 15.773 12.694 14.5947 12.694 13.5563V8.77301C12.694 8.29467 13.0907 7.89801 13.569 7.89801C14.0473 7.89801 14.444 8.29467 14.444 8.77301V13.5563C14.444 13.9763 14.794 14.5947 15.1557 14.8047L18.7723 16.963C19.1923 17.208 19.3323 17.7447 19.0757 18.1647Z" fill="#A1F8CF"/>
</svg>
