<svg width="16" height="16" viewBox="0 0 16 16" fill="none" xmlns="http://www.w3.org/2000/svg">
<path d="M13.9793 0.666992H12.0193C11.4393 0.666992 11.0127 0.906992 10.8193 1.33366C10.7127 1.52699 10.666 1.75366 10.666 2.02033V3.98033C10.666 4.82699 11.1727 5.33366 12.0193 5.33366H13.9793C14.246 5.33366 14.4727 5.28699 14.666 5.18033C15.0927 4.98699 15.3327 4.56033 15.3327 3.98033V2.02033C15.3327 1.17366 14.826 0.666992 13.9793 0.666992ZM14.606 3.28699C14.5393 3.35366 14.4393 3.40033 14.3327 3.40699H13.3927V3.74699L13.3993 4.33366C13.3927 4.44699 13.3527 4.54033 13.2727 4.62033C13.206 4.68699 13.106 4.73366 12.9993 4.73366C12.7793 4.73366 12.5993 4.55366 12.5993 4.33366V3.40033L11.666 3.40699C11.446 3.40699 11.266 3.22033 11.266 3.00033C11.266 2.78033 11.446 2.60033 11.666 2.60033L12.2527 2.60699H12.5993V1.67366C12.5993 1.45366 12.7793 1.26699 12.9993 1.26699C13.2193 1.26699 13.3993 1.45366 13.3993 1.67366L13.3927 2.14699V2.60033H14.3327C14.5527 2.60033 14.7327 2.78033 14.7327 3.00033C14.726 3.11366 14.6793 3.20699 14.606 3.28699Z" fill="#15BE77"/>
<path d="M6.00073 6.9204C6.87702 6.9204 7.5874 6.21003 7.5874 5.33374C7.5874 4.45745 6.87702 3.74707 6.00073 3.74707C5.12444 3.74707 4.41406 4.45745 4.41406 5.33374C4.41406 6.21003 5.12444 6.9204 6.00073 6.9204Z" fill="#15BE77"/>
<path d="M13.9807 5.33301H13.6673V8.40634L13.5807 8.33301C13.0607 7.88634 12.2207 7.88634 11.7007 8.33301L8.92732 10.713C8.40732 11.1597 7.56732 11.1597 7.04732 10.713L6.82065 10.5263C6.34732 10.113 5.59398 10.073 5.06065 10.433L2.56732 12.1063C2.42065 11.733 2.33398 11.2997 2.33398 10.793V5.20634C2.33398 3.32634 3.32732 2.33301 5.20732 2.33301H10.6673V2.01967C10.6673 1.75301 10.714 1.52634 10.8207 1.33301H5.20732C2.78065 1.33301 1.33398 2.77967 1.33398 5.20634V10.793C1.33398 11.5197 1.46065 12.153 1.70732 12.6863C2.28065 13.953 3.50732 14.6663 5.20732 14.6663H10.794C13.2207 14.6663 14.6673 13.2197 14.6673 10.793V5.17967C14.474 5.28634 14.2473 5.33301 13.9807 5.33301Z" fill="#15BE77"/>
</svg>
