<svg width="24" height="25" viewBox="0 0 24 25" fill="none" xmlns="http://www.w3.org/2000/svg">
<path d="M2.74982 19.2904C2.33982 19.2904 1.99982 18.9504 1.99982 18.5404V12.8404C1.94982 10.1304 2.95982 7.57043 4.83982 5.65043C6.71982 3.74043 9.23982 2.69043 11.9498 2.69043C17.4898 2.69043 21.9998 7.20043 21.9998 12.7404V18.4404C21.9998 18.8504 21.6598 19.1904 21.2498 19.1904C20.8398 19.1904 20.4998 18.8504 20.4998 18.4404V12.7404C20.4998 8.03043 16.6698 4.19043 11.9498 4.19043C9.63982 4.19043 7.49982 5.08043 5.90982 6.70043C4.30982 8.33043 3.45982 10.5004 3.49982 12.8204V18.5304C3.49982 18.9504 3.16982 19.2904 2.74982 19.2904Z" fill="#323232"/>
<path d="M5.94 13.0908H5.81C3.71 13.0908 2 14.8008 2 16.9008V18.7808C2 20.8808 3.71 22.5908 5.81 22.5908H5.94C8.04 22.5908 9.75 20.8808 9.75 18.7808V16.9008C9.75 14.8008 8.04 13.0908 5.94 13.0908Z" fill="#323232"/>
<path d="M18.19 13.0908H18.06C15.96 13.0908 14.25 14.8008 14.25 16.9008V18.7808C14.25 20.8808 15.96 22.5908 18.06 22.5908H18.19C20.29 22.5908 22 20.8808 22 18.7808V16.9008C22 14.8008 20.29 13.0908 18.19 13.0908Z" fill="#323232"/>
</svg>
