<svg width="57" height="58" viewBox="0 0 57 58" fill="none" xmlns="http://www.w3.org/2000/svg">
<path d="M29.4773 1.00124C14.0146 0.737064 1.26444 13.0582 1.00027 28.5209C0.850215 37.2884 4.75791 45.1683 10.9797 50.4084C11.3866 50.0534 11.823 49.728 12.3081 49.4638L20.6634 44.9062C21.7592 44.3081 22.4418 43.1595 22.4418 41.9105V38.4868C22.4418 38.4868 19.9892 35.5533 19.0541 31.4776C18.2784 30.9757 17.7585 30.1081 17.7585 29.1201V25.3731C17.7585 24.5488 18.1252 23.8123 18.6948 23.2967V17.8799C18.6948 17.8799 17.5821 9.45068 28.9976 9.45068C40.4131 9.45068 39.3005 17.8799 39.3005 17.8799V23.2967C39.8711 23.8123 40.2367 24.5488 40.2367 25.3731V29.1201C40.2367 30.3797 39.3914 31.4396 38.2438 31.7936C37.6045 33.7812 36.682 35.6759 35.4625 37.3983C35.155 37.8327 34.8676 38.2004 34.6161 38.4868V41.9971C34.6161 43.2895 35.3463 44.4719 36.5023 45.0489L45.4494 49.5219C45.9862 49.7903 46.4713 50.1295 46.9182 50.5067C52.952 45.4747 56.8502 37.951 56.995 29.4783C57.2612 14.0156 44.9412 1.26542 29.4773 1.00124Z" fill="#15BE77"/>
<path d="M20.6651 44.9056L12.3097 49.4632C11.8194 49.7305 11.3788 50.0592 10.9688 50.4174C15.8401 54.5247 22.1286 57.0027 28.9993 57.0027C35.8192 57.0027 42.0675 54.5617 46.9251 50.5103C46.4771 50.132 45.991 49.7918 45.4521 49.5234L36.505 45.0503C35.349 44.4723 34.6188 43.2909 34.6188 41.9986V38.4882C34.8703 38.2018 35.1577 37.8341 35.4652 37.3998C36.6847 35.6774 37.6072 33.7827 38.2464 31.7951C39.3941 31.4411 40.2394 30.3812 40.2394 29.1216V25.3745C40.2394 24.5503 39.8728 23.8138 39.3031 23.2981V17.8815C39.3031 17.8815 40.4159 9.45215 29.0003 9.45215C17.5848 9.45215 18.6975 17.8815 18.6975 17.8815V23.2981C18.1268 23.8138 17.7612 24.5503 17.7612 25.3745V29.1216C17.7612 30.1086 18.2801 30.9771 19.0568 31.4791C19.993 35.5548 22.4445 38.4882 22.4445 38.4882V41.9119C22.4435 43.1588 21.7608 44.3075 20.6651 44.9056Z" fill="#ADFFCC"/>
</svg>
