<svg width="20" height="20" viewBox="0 0 20 20" fill="none" xmlns="http://www.w3.org/2000/svg">
<path d="M6.04223 10.0003C6.04223 9.65866 6.32556 9.37533 6.66723 9.37533H9.16723V6.25033C9.16723 5.79199 8.79223 5.41699 8.3339 5.41699H6.47556C3.85056 5.41699 1.56723 7.56699 1.66723 10.1837C1.71723 11.3753 2.21723 12.4503 3.0089 13.242C3.84223 14.067 4.98389 14.5837 6.25056 14.5837H8.3339C8.79223 14.5837 9.16723 14.2087 9.16723 13.7503V10.6253H6.66723C6.32556 10.6253 6.04223 10.342 6.04223 10.0003Z" fill="#15BE77"/>
<path d="M16.9923 6.75866C16.159 5.93366 15.0173 5.41699 13.7507 5.41699H11.6673C11.209 5.41699 10.834 5.79199 10.834 6.25033V9.37533H13.334C13.6757 9.37533 13.959 9.65866 13.959 10.0003C13.959 10.342 13.6757 10.6253 13.334 10.6253H10.834V13.7503C10.834 14.2087 11.209 14.5837 11.6673 14.5837H13.5257C16.1507 14.5837 18.434 12.4337 18.3257 9.81699C18.284 8.62533 17.7757 7.55033 16.9923 6.75866Z" fill="#15BE77"/>
<path d="M10.8327 9.375H9.16602V10.625H10.8327V9.375Z" fill="#15BE77"/>
</svg>
