<svg width="24" height="24" viewBox="0 0 24 24" fill="none" xmlns="http://www.w3.org/2000/svg">
<path d="M15 2H9C4 2 2 4 2 9V15C2 20 4 22 9 22H15C20 22 22 20 22 15V9C22 4 20 2 15 2ZM16.7 10.0714L11.4 15.3714C11.2 15.5714 10.9429 15.6714 10.6714 15.6714C10.4 15.6714 10.1429 15.5714 9.94286 15.3714L7.28571 12.7143C6.88571 12.3143 6.88571 11.6714 7.28571 11.2714C7.68571 10.8714 8.32857 10.8714 8.72857 11.2714L10.6571 13.2L15.2429 8.61429C15.6429 8.21429 16.2857 8.21429 16.6857 8.61429C17.0857 9.01429 17.1 9.67143 16.7 10.0714Z" fill="white"/>
</svg>
