<svg width="28" height="28" viewBox="0 0 28 28" fill="none" xmlns="http://www.w3.org/2000/svg">
<path d="M9.04102 4.08301V2.33301C9.04102 1.85467 8.64435 1.45801 8.16602 1.45801C7.68768 1.45801 7.29102 1.85467 7.29102 2.33301V4.15301C7.58268 4.11801 7.85102 4.08301 8.16602 4.08301H9.04102Z" fill="#A1F8CF"/>
<path d="M18.375 4.15301V2.33301C18.375 1.85467 17.9783 1.45801 17.5 1.45801C17.0217 1.45801 16.625 1.85467 16.625 2.33301V4.08301H17.5C17.815 4.08301 18.0833 4.11801 18.375 4.15301Z" fill="#A1F8CF"/>
<path d="M24.839 17.4647C23.9407 16.753 22.809 16.333 21.584 16.333C20.359 16.333 19.204 16.7647 18.3057 17.488C17.0923 18.4447 16.334 19.938 16.334 21.583C16.334 22.563 16.614 23.508 17.0923 24.278C17.4657 24.8847 17.944 25.4213 18.5157 25.8297C19.379 26.4597 20.429 26.833 21.584 26.833C22.914 26.833 24.1156 26.343 25.0373 25.5263C25.4457 25.188 25.7957 24.768 26.0757 24.2897C26.554 23.508 26.834 22.563 26.834 21.583C26.834 19.9147 26.0523 18.4213 24.839 17.4647ZM21.584 24.0797C21.584 22.703 20.464 21.583 19.0873 21.583C20.464 21.583 21.584 20.463 21.584 19.0863C21.584 20.463 22.704 21.583 24.0806 21.583C22.704 21.583 21.584 22.703 21.584 24.0797Z" fill="#A1F8CF"/>
<path d="M18.3756 4.15301V5.83301C18.3756 6.31134 17.979 6.70801 17.5006 6.70801C17.0223 6.70801 16.6256 6.31134 16.6256 5.83301V4.08301H9.04232V5.83301C9.04232 6.31134 8.64565 6.70801 8.16732 6.70801C7.68898 6.70801 7.29232 6.31134 7.29232 5.83301V4.15301C3.85065 4.46801 2.33398 6.68467 2.33398 9.91634V19.833C2.33398 23.333 4.08398 25.6663 8.16732 25.6663H12.9857C13.8723 25.6663 14.4673 24.6747 14.2456 23.8113C14.0823 23.1813 14.0006 22.528 14.0006 21.8747C14.0006 19.448 15.0856 17.208 16.964 15.7263C18.329 14.618 20.079 13.9997 21.8756 13.9997H21.9223C22.6573 13.9997 23.334 13.463 23.334 12.728V9.91634C23.334 6.68467 21.8173 4.46801 18.3756 4.15301ZM10.5007 19.5413H8.16732C7.68898 19.5413 7.29232 19.1447 7.29232 18.6663C7.29232 18.188 7.68898 17.7913 8.16732 17.7913H10.5007C10.979 17.7913 11.3756 18.188 11.3756 18.6663C11.3756 19.1447 10.979 19.5413 10.5007 19.5413ZM14.0006 13.708H8.16732C7.68898 13.708 7.29232 13.3113 7.29232 12.833C7.29232 12.3547 7.68898 11.958 8.16732 11.958H14.0006C14.479 11.958 14.8756 12.3547 14.8756 12.833C14.8756 13.3113 14.479 13.708 14.0006 13.708Z" fill="#A1F8CF"/>
</svg>
